<?xml version="1.0" encoding="iso-8859-1"?>
<!-- Generator: Adobe Illustrator 16.0.0, SVG Export Plug-In . SVG Version: 6.00 Build 0)  -->
<!DOCTYPE svg PUBLIC "-//W3C//DTD SVG 1.1//EN" "http://www.w3.org/Graphics/SVG/1.1/DTD/svg11.dtd">
<svg version="1.1" id="Capa_1" xmlns="http://www.w3.org/2000/svg" xmlns:xlink="http://www.w3.org/1999/xlink" x="0px" y="0px"
	 width="426.788px" height="426.788px" viewBox="0 0 426.788 426.788" style="enable-background:new 0 0 426.788 426.788;"
	 xml:space="preserve">
<g>
	<path d="M103.836,382.503c-0.052,0.054-0.107,0.105-0.145,0.147l-1.845,1.837c-0.38,0.137-0.758,0.326-1.107,0.558
		c-7.401,4.877-17.86,3.82-24.161-2.473c-6.404-6.4-7.462-16.537-2.506-24.102c0.236-0.346,0.414-0.729,0.548-1.122l106.159-106.165
		c1.134-0.168,2.21-0.598,3.026-1.417l42.426-42.428c0.851-0.848,1.265-1.93,1.428-3.032l71.351-71.353l26.876,26.877
		C231.863,254.166,103.836,382.503,103.836,382.503z"/>
	<path d="M179.205,237.558l-56.468-56.466c0.42-0.215,0.811-0.467,1.231-0.693c0.74-0.398,1.462-0.814,2.192-1.231
		c1.338-0.769,2.645-1.57,3.928-2.41c0.701-0.456,1.399-0.913,2.082-1.391c1.328-0.927,2.607-1.903,3.872-2.903
		c0.565-0.447,1.149-0.877,1.699-1.339c1.774-1.491,3.504-3.042,5.149-4.688c1.74-1.743,3.37-3.585,4.934-5.482
		c0.483-0.58,0.935-1.184,1.397-1.78c1.096-1.41,2.149-2.853,3.154-4.345c0.431-0.637,0.866-1.278,1.281-1.928
		c1.17-1.855,2.278-3.756,3.299-5.714c0.137-0.262,0.302-0.517,0.436-0.785c0.034-0.066,0.076-0.123,0.107-0.194l56.528,56.528
		L179.205,237.558z"/>
	<path d="M18.292,90.7l33.796,33.793c1.073,1.082,2.514,1.65,4.089,1.57l39.176-2.089c2.743-0.145,4.935-2.339,5.082-5.082
		l2.084-39.173c0.081-1.522-0.488-3.011-1.569-4.086l-33.79-33.796c6.047-1.667,12.294-2.509,18.653-2.509
		c18.696,0,36.273,7.278,49.492,20.496c18.916,18.921,25.365,47.501,16.428,72.835c-0.124,0.368-0.291,0.716-0.441,1.07
		l-0.512,1.205c-3.59,9.181-8.803,17.227-15.485,23.898c-6.155,6.155-13.391,11.073-21.609,14.654
		c-0.41,0.186-0.834,0.344-1.251,0.499l-0.991,0.383c-8.241,3.246-16.926,4.89-25.813,4.89c-18.656,0-36.176-7.255-49.344-20.426
		C18.281,140.833,11.623,114.828,18.292,90.7z"/>
	<g>
		<path d="M333.245,286.77c-18.698,0-36.277,7.281-49.501,20.505c-5.99,5.989-10.823,13.05-14.368,20.981l-0.482,1.155
			c-0.221,0.514-0.447,1.018-0.629,1.532c-0.117,0.337-0.265,0.651-0.441,0.945c-9.791,25.774-3.592,54.888,15.916,74.399
			c13.224,13.224,30.808,20.499,49.506,20.499c18.705,0,36.284-7.275,49.508-20.499s20.51-30.808,20.51-49.506
			c0-18.7-7.286-36.284-20.51-49.508S351.955,286.77,333.245,286.77z M373.682,348.735l-9.448,35.233
			c-0.498,1.854-1.942,3.308-3.802,3.801l-35.232,9.453c-0.457,0.122-0.93,0.18-1.392,0.18c-1.407,0-2.787-0.557-3.802-1.574
			l-25.795-25.796c-1.358-1.354-1.894-3.339-1.391-5.192l9.438-35.238c0.498-1.854,1.942-3.309,3.801-3.802l35.238-9.438
			c1.87-0.493,3.833,0.031,5.191,1.396l25.797,25.786C373.646,344.897,374.175,346.871,373.682,348.735z"/>
		<path d="M294.982,283.7l-37.963-37.969l-34.777,34.871l39.112,39.118c3.953-8.472,9.25-16.083,15.744-22.572
			C282.41,291.841,288.4,287.336,294.982,283.7z"/>
		<path d="M239.208,74.815l11.922,17.218l50.389,26.585c0.482,0.247,0.914,0.57,1.291,0.951l34.474,34.468
			c0.397,0.398,0.734,0.86,0.992,1.364l53.811,105.805l18.945-14.052L385.75,119.22l-83.271-83.135l-17.429-3.472
			c-1.512-0.301-2.824-1.242-3.602-2.575L264.026,0l-63.254,63.258l35.402,9.423C237.402,73.01,238.479,73.765,239.208,74.815z"/>
		<polygon points="311.839,335.379 304.006,364.625 325.415,386.032 354.659,378.189 362.496,348.951 341.083,327.552 		"/>
	</g>
</g>
<g>
</g>
<g>
</g>
<g>
</g>
<g>
</g>
<g>
</g>
<g>
</g>
<g>
</g>
<g>
</g>
<g>
</g>
<g>
</g>
<g>
</g>
<g>
</g>
<g>
</g>
<g>
</g>
<g>
</g>
</svg>
